<svg width="74" height="31" viewBox="0 0 74 31" fill="none" xmlns="http://www.w3.org/2000/svg">
<g opacity="0.2">
<ellipse cx="2.99154" cy="28.2291" rx="2.16038" ry="2.15902" transform="rotate(-90 2.99154 28.2291)" fill="#4475F2"/>
<ellipse cx="12.7074" cy="28.2291" rx="2.16038" ry="2.15902" transform="rotate(-90 12.7074 28.2291)" fill="#4475F2"/>
<ellipse cx="22.4227" cy="28.2291" rx="2.16038" ry="2.15902" transform="rotate(-90 22.4227 28.2291)" fill="#4475F2"/>
<ellipse cx="32.1385" cy="28.2291" rx="2.16038" ry="2.15902" transform="rotate(-90 32.1385 28.2291)" fill="#4475F2"/>
<ellipse cx="41.8538" cy="28.2291" rx="2.16038" ry="2.15902" transform="rotate(-90 41.8538 28.2291)" fill="#4475F2"/>
<ellipse cx="51.5697" cy="28.2291" rx="2.16038" ry="2.15902" transform="rotate(-90 51.5697 28.2291)" fill="#4475F2"/>
<ellipse cx="61.285" cy="28.2291" rx="2.16038" ry="2.15902" transform="rotate(-90 61.285 28.2291)" fill="#4475F2"/>
<ellipse cx="71.0008" cy="28.2291" rx="2.16038" ry="2.15902" transform="rotate(-90 71.0008 28.2291)" fill="#4475F2"/>
<ellipse cx="2.99154" cy="19.5876" rx="2.16038" ry="2.15902" transform="rotate(-90 2.99154 19.5876)" fill="#4475F2"/>
<ellipse cx="12.7074" cy="19.5876" rx="2.16038" ry="2.15902" transform="rotate(-90 12.7074 19.5876)" fill="#4475F2"/>
<ellipse cx="22.4227" cy="19.5876" rx="2.16038" ry="2.15902" transform="rotate(-90 22.4227 19.5876)" fill="#4475F2"/>
<ellipse cx="32.1385" cy="19.5876" rx="2.16038" ry="2.15902" transform="rotate(-90 32.1385 19.5876)" fill="#4475F2"/>
<ellipse cx="41.8538" cy="19.5876" rx="2.16038" ry="2.15902" transform="rotate(-90 41.8538 19.5876)" fill="#4475F2"/>
<ellipse cx="51.5697" cy="19.5876" rx="2.16038" ry="2.15902" transform="rotate(-90 51.5697 19.5876)" fill="#4475F2"/>
<ellipse cx="61.285" cy="19.5876" rx="2.16038" ry="2.15902" transform="rotate(-90 61.285 19.5876)" fill="#4475F2"/>
<ellipse cx="71.0008" cy="19.5876" rx="2.16038" ry="2.15902" transform="rotate(-90 71.0008 19.5876)" fill="#4475F2"/>
<ellipse cx="2.99154" cy="10.9461" rx="2.16038" ry="2.15902" transform="rotate(-90 2.99154 10.9461)" fill="#4475F2"/>
<ellipse cx="12.7074" cy="10.9461" rx="2.16038" ry="2.15902" transform="rotate(-90 12.7074 10.9461)" fill="#4475F2"/>
<ellipse cx="22.4227" cy="10.9461" rx="2.16038" ry="2.15902" transform="rotate(-90 22.4227 10.9461)" fill="#4475F2"/>
<ellipse cx="32.1385" cy="10.9461" rx="2.16038" ry="2.15902" transform="rotate(-90 32.1385 10.9461)" fill="#4475F2"/>
<ellipse cx="41.8538" cy="10.9461" rx="2.16038" ry="2.15902" transform="rotate(-90 41.8538 10.9461)" fill="#4475F2"/>
<ellipse cx="51.5697" cy="10.9461" rx="2.16038" ry="2.15902" transform="rotate(-90 51.5697 10.9461)" fill="#4475F2"/>
<ellipse cx="61.285" cy="10.9461" rx="2.16038" ry="2.15902" transform="rotate(-90 61.285 10.9461)" fill="#4475F2"/>
<ellipse cx="71.0008" cy="10.9461" rx="2.16038" ry="2.15902" transform="rotate(-90 71.0008 10.9461)" fill="#4475F2"/>
<ellipse cx="2.99154" cy="2.3046" rx="2.16038" ry="2.15902" transform="rotate(-90 2.99154 2.3046)" fill="#4475F2"/>
<ellipse cx="12.7074" cy="2.3046" rx="2.16038" ry="2.15902" transform="rotate(-90 12.7074 2.3046)" fill="#4475F2"/>
<ellipse cx="22.4227" cy="2.3046" rx="2.16038" ry="2.15902" transform="rotate(-90 22.4227 2.3046)" fill="#4475F2"/>
<ellipse cx="32.1385" cy="2.3046" rx="2.16038" ry="2.15902" transform="rotate(-90 32.1385 2.3046)" fill="#4475F2"/>
<ellipse cx="41.8538" cy="2.3046" rx="2.16038" ry="2.15902" transform="rotate(-90 41.8538 2.3046)" fill="#4475F2"/>
<ellipse cx="51.5697" cy="2.3046" rx="2.16038" ry="2.15902" transform="rotate(-90 51.5697 2.3046)" fill="#4475F2"/>
<ellipse cx="61.285" cy="2.3046" rx="2.16038" ry="2.15902" transform="rotate(-90 61.285 2.3046)" fill="#4475F2"/>
<ellipse cx="71.0008" cy="2.3046" rx="2.16038" ry="2.15902" transform="rotate(-90 71.0008 2.3046)" fill="#4475F2"/>
</g>
</svg>
