<svg width="30" height="74" viewBox="0 0 30 74" fill="none" xmlns="http://www.w3.org/2000/svg">
<g opacity="0.2">
<ellipse cx="2.84419" cy="2.98428" rx="2.14399" ry="2.14534" fill="#4475F2"/>
<ellipse cx="2.84419" cy="12.8077" rx="2.14399" ry="2.14534" fill="#4475F2"/>
<ellipse cx="2.84419" cy="22.6311" rx="2.14399" ry="2.14534" fill="#4475F2"/>
<ellipse cx="2.84419" cy="32.4545" rx="2.14399" ry="2.14534" fill="#4475F2"/>
<ellipse cx="2.84419" cy="42.2778" rx="2.14399" ry="2.14534" fill="#4475F2"/>
<ellipse cx="2.84419" cy="52.1011" rx="2.14399" ry="2.14534" fill="#4475F2"/>
<ellipse cx="2.84419" cy="61.9245" rx="2.14399" ry="2.14534" fill="#4475F2"/>
<ellipse cx="2.84419" cy="71.7479" rx="2.14399" ry="2.14534" fill="#4475F2"/>
<ellipse cx="11.0815" cy="2.98428" rx="2.14399" ry="2.14534" fill="#4475F2"/>
<ellipse cx="11.0815" cy="12.8077" rx="2.14399" ry="2.14534" fill="#4475F2"/>
<ellipse cx="11.0815" cy="22.6311" rx="2.14399" ry="2.14534" fill="#4475F2"/>
<ellipse cx="11.0815" cy="32.4545" rx="2.14399" ry="2.14534" fill="#4475F2"/>
<ellipse cx="11.0815" cy="42.2778" rx="2.14399" ry="2.14534" fill="#4475F2"/>
<ellipse cx="11.0815" cy="52.1011" rx="2.14399" ry="2.14534" fill="#4475F2"/>
<ellipse cx="11.0815" cy="61.9245" rx="2.14399" ry="2.14534" fill="#4475F2"/>
<ellipse cx="11.0815" cy="71.7479" rx="2.14399" ry="2.14534" fill="#4475F2"/>
<ellipse cx="19.3193" cy="2.98428" rx="2.14399" ry="2.14534" fill="#4475F2"/>
<ellipse cx="19.3193" cy="12.8077" rx="2.14399" ry="2.14534" fill="#4475F2"/>
<ellipse cx="19.3193" cy="22.6311" rx="2.14399" ry="2.14534" fill="#4475F2"/>
<ellipse cx="19.3193" cy="32.4545" rx="2.14399" ry="2.14534" fill="#4475F2"/>
<ellipse cx="19.3193" cy="42.2778" rx="2.14399" ry="2.14534" fill="#4475F2"/>
<ellipse cx="19.3193" cy="52.1011" rx="2.14399" ry="2.14534" fill="#4475F2"/>
<ellipse cx="19.3193" cy="61.9245" rx="2.14399" ry="2.14534" fill="#4475F2"/>
<ellipse cx="19.3193" cy="71.7479" rx="2.14399" ry="2.14534" fill="#4475F2"/>
<ellipse cx="27.5566" cy="2.98428" rx="2.14399" ry="2.14534" fill="#4475F2"/>
<ellipse cx="27.5566" cy="12.8077" rx="2.14399" ry="2.14534" fill="#4475F2"/>
<ellipse cx="27.5566" cy="22.6311" rx="2.14399" ry="2.14534" fill="#4475F2"/>
<ellipse cx="27.5566" cy="32.4545" rx="2.14399" ry="2.14534" fill="#4475F2"/>
<ellipse cx="27.5566" cy="42.2778" rx="2.14399" ry="2.14534" fill="#4475F2"/>
<ellipse cx="27.5566" cy="52.1011" rx="2.14399" ry="2.14534" fill="#4475F2"/>
<ellipse cx="27.5566" cy="61.9245" rx="2.14399" ry="2.14534" fill="#4475F2"/>
<ellipse cx="27.5566" cy="71.7479" rx="2.14399" ry="2.14534" fill="#4475F2"/>
</g>
</svg>
